<svg width="120" height="27" viewBox="0 0 120 27" fill="none" xmlns="http://www.w3.org/2000/svg">
<g clip-path="url(#clip0_853_1516)">
<path fill-rule="evenodd" clip-rule="evenodd" d="M26.1774 13C26.1774 24.699 24.8675 26 13.178 26C1.32969 26 0 24.699 0 13C0 1.30102 1.30984 0 13.178 0C24.8675 0 26.1774 1.30102 26.1774 13ZM24.2324 13C24.2324 10.2108 24.163 8.04243 23.8653 6.35707C23.647 5.0758 23.3295 4.12971 22.6845 3.47922C22.0295 2.82873 21.0868 2.51334 19.8067 2.29651C18.1297 2.01069 15.9565 1.94164 13.178 1.94164C10.3499 1.94164 8.14698 2.01069 6.44019 2.29651C5.14025 2.52319 4.17766 2.83854 3.52273 3.48904C2.85788 4.13953 2.54037 5.07586 2.32206 6.36698C2.02437 8.04249 1.95489 10.2108 1.95489 13C1.95489 15.7892 2.02437 17.9477 2.32206 19.633C2.54037 20.9143 2.8678 21.8605 3.52273 22.511C4.18759 23.1615 5.14021 23.4768 6.45007 23.7035C8.15686 23.9893 10.3499 24.0584 13.178 24.0584C15.9565 24.0584 18.1297 23.9893 19.8067 23.7035C21.0868 23.4768 22.0295 23.1713 22.6845 22.5208C23.3295 21.8703 23.647 20.9242 23.8653 19.6429C24.163 17.9576 24.2324 15.7892 24.2324 13Z" fill="white"/>
<path fill-rule="evenodd" clip-rule="evenodd" d="M8.2076 15.9909C8.2076 15.6508 8.00215 15.3496 7.68906 15.2233C6.88677 14.9026 5.37025 14.3 4.65601 14.0182C4.4212 13.9211 4.26465 13.6975 4.26465 13.4448C4.26465 13.1728 4.26465 12.823 4.26465 12.5509C4.26465 12.2982 4.4212 12.0747 4.65601 11.9775C5.37025 11.6957 6.88677 11.0932 7.68906 10.7725C8.00215 10.6461 8.2076 10.3449 8.2076 10.0145C8.2076 9.27601 8.2076 7.98358 8.2076 7.21588C8.2076 7.05068 8.27612 6.88551 8.39353 6.7689C8.51094 6.65229 8.66748 6.59391 8.83381 6.59391C9.03928 6.59391 9.25447 6.59391 9.45993 6.59391C9.62626 6.59391 9.78281 6.65229 9.90021 6.7689C10.0176 6.88551 10.0861 7.05068 10.0861 7.21588C10.0861 8.14878 10.0861 9.8202 10.0861 9.8202C10.0861 9.8202 17.6394 6.81745 19.8115 5.95258C20.1344 5.82625 20.4963 5.98169 20.6235 6.30238C20.7018 6.48701 20.78 6.69112 20.8583 6.87576C20.917 7.03124 20.917 7.2062 20.8583 7.35196C20.7898 7.50745 20.6627 7.624 20.5061 7.68231C18.5884 8.45001 12.4343 10.8891 10.6047 11.6179C10.2916 11.7443 10.0861 12.0456 10.0861 12.3857C10.0861 12.7549 10.0861 13.2408 10.0861 13.6101C10.0861 13.9502 10.2916 14.2515 10.6047 14.3778C12.4343 15.1066 18.5884 17.5458 20.5061 18.3135C20.6627 18.3718 20.7898 18.4883 20.8583 18.6438C20.917 18.7993 20.917 18.9645 20.8583 19.12C20.78 19.3047 20.7018 19.5088 20.6235 19.6934C20.4963 20.0141 20.1344 20.1695 19.8115 20.0432C17.6394 19.1783 10.0861 16.1756 10.0861 16.1756C10.0861 16.1756 10.0861 17.847 10.0861 18.7896C10.0861 18.9548 10.0176 19.1103 9.90021 19.2269C9.78281 19.3435 9.62626 19.4116 9.45993 19.4116C9.25447 19.4116 9.03928 19.4116 8.83381 19.4116C8.66748 19.4116 8.51094 19.3435 8.39353 19.2269C8.27612 19.1103 8.2076 18.9548 8.2076 18.7896C8.2076 18.0219 8.2076 16.7197 8.2076 15.9909ZM8.2076 12.4051L6.30955 12.9979L8.2076 13.5906V12.4051Z" fill="white"/>
<path fill-rule="evenodd" clip-rule="evenodd" d="M37.0913 14.3628C36.8332 14.1243 36.7864 13.8636 37.0913 13.5658L43.8048 7.4557H46.8272L39.4985 13.9643L47.1214 20.7385H44.099L37.0913 14.3628ZM36.3731 20.7385H34.2334V2.14258H36.3731V20.7385ZM53.7546 21.0042C52.0428 21.0042 50.7322 20.6277 49.8228 19.8751C48.9134 19.1224 48.4588 18.1173 48.4588 16.8599C48.4588 15.5493 48.9094 14.5089 49.8095 13.7385C50.7095 12.9681 52.0522 12.5829 53.8349 12.5829H58.7831V12.2375C58.7831 11.2457 58.4487 10.4886 57.78 9.96615C57.1114 9.44361 56.1793 9.18247 54.985 9.18247C52.7557 9.18247 51.4544 9.89084 51.0799 11.3077H48.9402C49.0285 10.1388 49.5861 9.16028 50.6119 8.37222C51.6363 7.58401 53.0953 7.19005 54.985 7.19005C56.8212 7.19005 58.2709 7.63714 59.3314 8.53161C60.3919 9.42594 60.9228 10.6612 60.9228 12.2375V20.7385H59.0933L58.7991 19.1711C58.7991 19.1711 58.763 18.9839 58.5958 19.1711C58.1679 19.6493 57.526 20.0744 56.6701 20.4463C55.8142 20.8182 54.8419 21.0042 53.7546 21.0042ZM53.8081 19.0118C55.3768 19.0118 56.5992 18.6619 57.4725 17.9624C58.3458 17.2628 58.7831 16.2932 58.7831 15.0535V14.5753H53.5942C52.6126 14.5753 51.869 14.7833 51.3608 15.1996C50.8526 15.6157 50.5985 16.1692 50.5985 16.8599C50.5985 17.4975 50.87 18.0155 51.4143 18.414C51.9586 18.8125 52.7556 19.0118 53.8081 19.0118ZM67.4758 20.7385H65.3361V2.52817H67.4758V20.7385ZM74.0288 20.7385H71.8891V7.4557H74.0288V20.7385ZM74.0288 4.50917H71.8891V2.52817H74.0288V4.50917ZM78.1144 26.0516V7.4557H79.9867L80.198 9.28873C80.2154 9.37746 80.305 9.40615 80.4146 9.28873C81.7159 7.88952 83.3381 7.19005 85.2826 7.19005C86.4942 7.19005 87.627 7.48665 88.6794 8.07999C89.7306 8.6732 91.9359 10.6513 91.9359 14.0971C91.9359 17.5428 89.7306 19.5209 88.6794 20.1142C87.627 20.7074 86.4942 21.0042 85.2826 21.0042C83.3381 21.0042 81.7159 20.3046 80.4146 18.9055C80.3344 18.8195 80.2555 18.867 80.2542 18.9533V26.0516H78.1144ZM85.1221 19.0118C85.978 19.0118 86.7751 18.808 87.516 18.4007C88.2555 17.9934 89.7961 16.7021 89.7961 14.0971C89.7961 11.492 88.2555 10.2007 87.516 9.79348C86.7751 9.38609 85.978 9.18247 85.1221 9.18247C84.2662 9.18247 83.4678 9.38609 82.7283 9.79348C81.9874 10.2007 81.3909 10.7808 80.9362 11.5335C80.4815 12.2861 80.2542 13.1407 80.2542 14.0971C80.2542 15.0535 80.4815 15.908 80.9362 16.6607C81.3909 17.4133 81.9874 17.9934 82.7283 18.4007C83.4678 18.808 84.2662 19.0118 85.1221 19.0118ZM101.625 21.0042C100.358 21.0042 99.3795 20.7031 98.3016 20.1009C97.2224 19.4987 94.7309 17.5279 94.7309 14.0971C94.7309 10.2641 97.2398 8.6732 98.3551 8.07999C99.4692 7.48665 100.502 7.19005 101.839 7.19005C103.158 7.19005 104.154 7.46446 105.216 8.01358C106.276 8.56255 108.626 10.46 108.626 13.5924C108.626 14.2299 108.581 14.7258 108.492 15.08H96.8707C97.0673 16.2311 97.633 17.1742 98.5691 17.9093C99.5053 18.6442 100.395 19.0118 101.625 19.0118C104.245 19.0118 105.443 17.6214 105.87 17.0193H108.171C107.6 18.2059 106.096 21.0042 101.625 21.0042ZM106.486 13.0876C106.486 11.6685 105.249 9.18247 101.839 9.18247C98.5584 9.18247 96.8707 11.3494 96.8707 13.0876H106.486ZM111.969 20.7385V7.4557H113.791L114.032 8.78399C114.032 8.78399 114.106 8.96782 114.243 8.78399C114.581 8.32347 114.938 7.98701 115.313 7.77449C115.687 7.56196 116.167 7.4557 116.757 7.4557H120V9.44813H117.051C116.123 9.44813 115.401 9.70488 114.885 10.2185C114.367 10.732 114.109 11.4493 114.109 12.3703V20.7385H111.969Z" fill="white"/>
</g>
<defs>
<clipPath id="clip0_853_1516">
<rect width="120" height="27" fill="white"/>
</clipPath>
</defs>
</svg>
