<svg xmlns="http://www.w3.org/2000/svg" width="1200" height="630" viewBox="0 0 1200 630">
  <defs>
    <!-- Gradient fills for depth -->
    <linearGradient id="g1" x1="0" y1="0" x2="1" y2="1">
      <stop offset="0%" stop-color="#1a2255"/>
      <stop offset="100%" stop-color="#0a1030"/>
    </linearGradient>
    <linearGradient id="g2" x1="0" y1="1" x2="1" y2="0">
      <stop offset="0%" stop-color="#151d4a"/>
      <stop offset="100%" stop-color="#0d1540"/>
    </linearGradient>
    <linearGradient id="g3" x1="0.5" y1="0" x2="0.5" y2="1">
      <stop offset="0%" stop-color="#1e2860"/>
      <stop offset="100%" stop-color="#111a45"/>
    </linearGradient>
    <linearGradient id="g4" x1="1" y1="0" x2="0" y2="1">
      <stop offset="0%" stop-color="#232d65"/>
      <stop offset="100%" stop-color="#141c48"/>
    </linearGradient>
    <linearGradient id="g5" x1="0" y1="0.5" x2="1" y2="0.5">
      <stop offset="0%" stop-color="#192050"/>
      <stop offset="100%" stop-color="#0c1238"/>
    </linearGradient>
    <clipPath id="canvas">
      <rect width="1200" height="630"/>
    </clipPath>
  </defs>

  <!-- Navy base -->
  <rect width="1200" height="630" fill="#070F36"/>

  <g clip-path="url(#canvas)">
    <!-- Large background piece - bottom left -->
    <g transform="translate(-180, 80) scale(1.4)" opacity="0.5">
      <path fill="url(#g1)" fill-rule="evenodd" d="M376.77,461.35c0,22.52-18.42,40.94-40.94,40.94h-170.77c-10.85,0-20.75-4.47-27.91-11.63-7.16-7.16-11.58-17-11.58-27.86V165.06c0-16.28,10.01-30.37,24.16-36.41,2.35-1.01,4.81-1.74,7.38-2.3,2.57-.5,5.2-.78,7.94-.78h3.7c22.61,0,40.93-18.33,40.93-40.93v-43.7c0-22.61-18.32-40.94-40.93-40.94h-5.49c-23.21,0-40.55,18.91-39.43,42.12,1.57,33-8.56,57.5-29.92,70.7-2.85,1.79-5.87,3.36-9.12,4.7-11.72,4.92-26,7.16-42.79,6.35C19,122.76,0,141.76,0,164.79v299.63c0,22.43,18.57,40.94,41,39.66,12.25-.67,23.16.45,32.66,3.24,34.06,10.01,50.68,40.66,50.12,80.88-.28,21.81,17.68,39.71,39.49,39.71h176.47c22.2,0,39.1-18.12,38.76-40.33-.28-20.25,4.19-37.98,13.03-51.85,13.26-20.73,36.24-32.82,67.69-31.46,23.33,1.01,43.06-16.9,43.06-40.26v-108.79c0-22.61-18.33-40.94-40.94-40.94h-43.65c-22.61,0-40.93,18.33-40.93,40.94v106.12ZM439.53,125.57c-24.61,0-40.78-11.52-50.28-28.97-8.17-15.16-11.3-34.73-10.51-55.26.89-22.71-16.67-41.34-39.43-41.34h-54.49c-22.61,0-40.94,18.33-40.94,40.94v43.7c0,22.6,18.33,40.93,40.94,40.93h51.03c22.52,0,40.94,18.42,40.94,40.93v72.68c0,22.61,18.32,40.94,40.93,40.94h43.65c22.61,0,40.94-18.33,40.94-40.94v-50.8c0-34.57-28.25-62.81-62.76-62.81"/>
    </g>

    <!-- Mid piece - center right -->
    <g transform="translate(500, -120) scale(1.2)" opacity="0.4">
      <path fill="url(#g2)" fill-rule="evenodd" d="M376.77,461.35c0,22.52-18.42,40.94-40.94,40.94h-170.77c-10.85,0-20.75-4.47-27.91-11.63-7.16-7.16-11.58-17-11.58-27.86V165.06c0-16.28,10.01-30.37,24.16-36.41,2.35-1.01,4.81-1.74,7.38-2.3,2.57-.5,5.2-.78,7.94-.78h3.7c22.61,0,40.93-18.33,40.93-40.93v-43.7c0-22.61-18.32-40.94-40.93-40.94h-5.49c-23.21,0-40.55,18.91-39.43,42.12,1.57,33-8.56,57.5-29.92,70.7-2.85,1.79-5.87,3.36-9.12,4.7-11.72,4.92-26,7.16-42.79,6.35C19,122.76,0,141.76,0,164.79v299.63c0,22.43,18.57,40.94,41,39.66,12.25-.67,23.16.45,32.66,3.24,34.06,10.01,50.68,40.66,50.12,80.88-.28,21.81,17.68,39.71,39.49,39.71h176.47c22.2,0,39.1-18.12,38.76-40.33-.28-20.25,4.19-37.98,13.03-51.85,13.26-20.73,36.24-32.82,67.69-31.46,23.33,1.01,43.06-16.9,43.06-40.26v-108.79c0-22.61-18.33-40.94-40.94-40.94h-43.65c-22.61,0-40.93,18.33-40.93,40.94v106.12ZM439.53,125.57c-24.61,0-40.78-11.52-50.28-28.97-8.17-15.16-11.3-34.73-10.51-55.26.89-22.71-16.67-41.34-39.43-41.34h-54.49c-22.61,0-40.94,18.33-40.94,40.94v43.7c0,22.6,18.33,40.93,40.94,40.93h51.03c22.52,0,40.94,18.42,40.94,40.93v72.68c0,22.61,18.32,40.94,40.93,40.94h43.65c22.61,0,40.94-18.33,40.94-40.94v-50.8c0-34.57-28.25-62.81-62.76-62.81"/>
    </g>

    <!-- Foreground piece - top right, brighter -->
    <g transform="translate(700, -60) scale(1.0)" opacity="0.35">
      <path fill="url(#g3)" fill-rule="evenodd" d="M376.77,461.35c0,22.52-18.42,40.94-40.94,40.94h-170.77c-10.85,0-20.75-4.47-27.91-11.63-7.16-7.16-11.58-17-11.58-27.86V165.06c0-16.28,10.01-30.37,24.16-36.41,2.35-1.01,4.81-1.74,7.38-2.3,2.57-.5,5.2-.78,7.94-.78h3.7c22.61,0,40.93-18.33,40.93-40.93v-43.7c0-22.61-18.32-40.94-40.93-40.94h-5.49c-23.21,0-40.55,18.91-39.43,42.12,1.57,33-8.56,57.5-29.92,70.7-2.85,1.79-5.87,3.36-9.12,4.7-11.72,4.92-26,7.16-42.79,6.35C19,122.76,0,141.76,0,164.79v299.63c0,22.43,18.57,40.94,41,39.66,12.25-.67,23.16.45,32.66,3.24,34.06,10.01,50.68,40.66,50.12,80.88-.28,21.81,17.68,39.71,39.49,39.71h176.47c22.2,0,39.1-18.12,38.76-40.33-.28-20.25,4.19-37.98,13.03-51.85,13.26-20.73,36.24-32.82,67.69-31.46,23.33,1.01,43.06-16.9,43.06-40.26v-108.79c0-22.61-18.33-40.94-40.94-40.94h-43.65c-22.61,0-40.93,18.33-40.93,40.94v106.12ZM439.53,125.57c-24.61,0-40.78-11.52-50.28-28.97-8.17-15.16-11.3-34.73-10.51-55.26.89-22.71-16.67-41.34-39.43-41.34h-54.49c-22.61,0-40.94,18.33-40.94,40.94v43.7c0,22.6,18.33,40.93,40.94,40.93h51.03c22.52,0,40.94,18.42,40.94,40.93v72.68c0,22.61,18.32,40.94,40.93,40.94h43.65c22.61,0,40.94-18.33,40.94-40.94v-50.8c0-34.57-28.25-62.81-62.76-62.81"/>
    </g>

    <!-- Small piece - bottom right corner -->
    <g transform="translate(850, 200) scale(0.8)" opacity="0.3">
      <path fill="url(#g4)" fill-rule="evenodd" d="M376.77,461.35c0,22.52-18.42,40.94-40.94,40.94h-170.77c-10.85,0-20.75-4.47-27.91-11.63-7.16-7.16-11.58-17-11.58-27.86V165.06c0-16.28,10.01-30.37,24.16-36.41,2.35-1.01,4.81-1.74,7.38-2.3,2.57-.5,5.2-.78,7.94-.78h3.7c22.61,0,40.93-18.33,40.93-40.93v-43.7c0-22.61-18.32-40.94-40.93-40.94h-5.49c-23.21,0-40.55,18.91-39.43,42.12,1.57,33-8.56,57.5-29.92,70.7-2.85,1.79-5.87,3.36-9.12,4.7-11.72,4.92-26,7.16-42.79,6.35C19,122.76,0,141.76,0,164.79v299.63c0,22.43,18.57,40.94,41,39.66,12.25-.67,23.16.45,32.66,3.24,34.06,10.01,50.68,40.66,50.12,80.88-.28,21.81,17.68,39.71,39.49,39.71h176.47c22.2,0,39.1-18.12,38.76-40.33-.28-20.25,4.19-37.98,13.03-51.85,13.26-20.73,36.24-32.82,67.69-31.46,23.33,1.01,43.06-16.9,43.06-40.26v-108.79c0-22.61-18.33-40.94-40.94-40.94h-43.65c-22.61,0-40.93,18.33-40.93,40.94v106.12ZM439.53,125.57c-24.61,0-40.78-11.52-50.28-28.97-8.17-15.16-11.3-34.73-10.51-55.26.89-22.71-16.67-41.34-39.43-41.34h-54.49c-22.61,0-40.94,18.33-40.94,40.94v43.7c0,22.6,18.33,40.93,40.94,40.93h51.03c22.52,0,40.94,18.42,40.94,40.93v72.68c0,22.61,18.32,40.94,40.93,40.94h43.65c22.61,0,40.94-18.33,40.94-40.94v-50.8c0-34.57-28.25-62.81-62.76-62.81"/>
    </g>

    <!-- Extra piece - far left -->
    <g transform="translate(-350, -200) scale(1.1)" opacity="0.25">
      <path fill="url(#g5)" fill-rule="evenodd" d="M376.77,461.35c0,22.52-18.42,40.94-40.94,40.94h-170.77c-10.85,0-20.75-4.47-27.91-11.63-7.16-7.16-11.58-17-11.58-27.86V165.06c0-16.28,10.01-30.37,24.16-36.41,2.35-1.01,4.81-1.74,7.38-2.3,2.57-.5,5.2-.78,7.94-.78h3.7c22.61,0,40.93-18.33,40.93-40.93v-43.7c0-22.61-18.32-40.94-40.93-40.94h-5.49c-23.21,0-40.55,18.91-39.43,42.12,1.57,33-8.56,57.5-29.92,70.7-2.85,1.79-5.87,3.36-9.12,4.7-11.72,4.92-26,7.16-42.79,6.35C19,122.76,0,141.76,0,164.79v299.63c0,22.43,18.57,40.94,41,39.66,12.25-.67,23.16.45,32.66,3.24,34.06,10.01,50.68,40.66,50.12,80.88-.28,21.81,17.68,39.71,39.49,39.71h176.47c22.2,0,39.1-18.12,38.76-40.33-.28-20.25,4.19-37.98,13.03-51.85,13.26-20.73,36.24-32.82,67.69-31.46,23.33,1.01,43.06-16.9,43.06-40.26v-108.79c0-22.61-18.33-40.94-40.94-40.94h-43.65c-22.61,0-40.93,18.33-40.93,40.94v106.12ZM439.53,125.57c-24.61,0-40.78-11.52-50.28-28.97-8.17-15.16-11.3-34.73-10.51-55.26.89-22.71-16.67-41.34-39.43-41.34h-54.49c-22.61,0-40.94,18.33-40.94,40.94v43.7c0,22.6,18.33,40.93,40.94,40.93h51.03c22.52,0,40.94,18.42,40.94,40.93v72.68c0,22.61,18.32,40.94,40.93,40.94h43.65c22.61,0,40.94-18.33,40.94-40.94v-50.8c0-34.57-28.25-62.81-62.76-62.81"/>
    </g>
  </g>

  <!-- Center content overlay - slight vignette -->
  <rect width="1200" height="630" fill="url(#g1)" opacity="0.15"/>

  <!-- TOF Logo centered -->
  <g transform="translate(460, 155) scale(0.316)">
    <path fill="#dde3f1" fill-rule="evenodd" d="M545.13,264.51c0,12.91-10.56,23.47-23.47,23.47h-97.9c-6.22,0-11.9-2.57-16-6.67-4.1-4.1-6.64-9.75-6.64-15.97V94.65c0-9.33,5.74-17.41,13.85-20.88,1.35-.58,2.76-.99,4.23-1.31,1.48-.29,2.98-.45,4.55-.45h2.12c12.96,0,23.47-10.51,23.47-23.47v-25.06C449.34,10.53,438.84.02,425.88.02h-3.15c-13.31,0-23.25,10.84-22.61,24.15.9,18.92-4.91,32.96-17.16,40.53-1.64,1.03-3.37,1.92-5.23,2.69-6.72,2.82-14.9,4.1-24.53,3.64-13.18-.64-24.08,10.26-24.08,23.46v171.78c0,12.86,10.65,23.47,23.5,22.74,7.02-.38,13.28.26,18.73,1.86,19.53,5.74,29.05,23.31,28.73,46.37-.16,12.51,10.13,22.77,22.64,22.77h101.17c12.73,0,22.41-10.39,22.22-23.12-.16-11.61,2.41-21.77,7.47-29.73,7.6-11.89,20.78-18.81,38.81-18.03,13.37.58,24.68-9.69,24.68-23.08v-62.37c0-12.96-10.51-23.47-23.47-23.47h-25.02c-12.96,0-23.47,10.51-23.47,23.47v60.84ZM581.11,72.01c-14.11,0-23.38-6.61-28.83-16.61-4.68-8.69-6.48-19.91-6.03-31.68.51-13.02-9.56-23.7-22.61-23.7h-31.24c-12.96,0-23.47,10.51-23.47,23.47v25.06c0,12.96,10.51,23.47,23.47,23.47h29.25c12.91,0,23.47,10.56,23.47,23.47v41.67c0,12.96,10.51,23.47,23.47,23.47h25.02c12.96,0,23.47-10.51,23.47-23.47v-29.12c0-19.82-16.19-36.01-35.98-36.01"/>
    <path fill="#dde3f1" d="M885.8,187.62v27.51c0,12.54-10.13,22.67-22.64,22.67h-98.44c-8.59,0-16.07,4.78-19.91,11.83-1.73,3.21-2.73,6.89-2.73,10.81v76.9c0,12.44-10.2,22.64-22.67,22.64h-27.64c-12.51,0-22.67-10.13-22.67-22.64v-77.63c0-12.51,10.16-22.64,22.67-22.64h27.64c12.54,0,22.67-10.13,22.67-22.67v-26.49c0-12.63-10.33-22.83-22.96-22.67l-33.13.45c-9.33,0-16.9-7.57-16.9-16.9v-73.02c0-12.51,10.16-22.64,22.67-22.64h40.05c16.1,0,30.17-13.21,28.92-29.6-.99-12.92,9.65-23.54,22.61-23.54h86.58c3.94,0,7.66,1.48,10.39,4.3,2.82,2.69,4.26,6.41,4.26,10.39v34.05c0,12.51-10.13,22.67-22.64,22.67h-97.23c-5.48,0-10.49,1.92-14.4,5.16-5.03,4.17-8.24,10.45-8.24,17.48v48.26c0,3.91.99,7.6,2.73,10.81,3.85,7.05,11.32,11.83,19.91,11.83h98.44c12.51,0,22.64,10.17,22.64,22.67"/>
    <path fill="#dde3f1" d="M286.32,0h-70.77c-12.19,0-22.03,9.88-22.03,22.03v.29c0,12.63-10.33,14.76-22.96,14.76h-32.13c-12.63,0-22.96-2.13-22.96-14.76v-.29c0-12.15-9.84-22.03-22.03-22.03H22.67C10.13,0,0,10.13,0,22.64v27.58c0,12.51,10.13,22.64,22.67,22.64h61.47c5.26,0,10.23,1.19,14.65,3.33,11.38,5.48,19.21,17.09,19.21,30.53v228.89c0,12.51,10.13,22.64,22.64,22.64h27.71c12.51,0,22.64-10.13,22.64-22.64V106.72c0-13.44,7.82-25.04,19.21-30.53,4.43-2.15,9.4-3.33,14.65-3.33h61.47c12.54,0,22.67-10.13,22.67-22.64v-27.58c0-12.51-10.13-22.64-22.67-22.64"/>
  </g>

  <!-- Coral accent -->
  <rect x="550" y="365" width="100" height="2" fill="#FF7C7C" rx="1"/>

  <!-- Tagline -->
  <text x="600" y="405" text-anchor="middle" font-family="DM Sans, -apple-system, sans-serif" font-size="22" font-weight="400" fill="#9DA2B3">The identity layer performance runs on.</text>

  <!-- URL -->
  <text x="600" y="445" text-anchor="middle" font-family="IBM Plex Mono, monospace" font-size="12" fill="#4A4E5E" letter-spacing="0.14em">TOF.IO</text>
</svg>
