<svg width="200" height="15" viewBox="0 0 200 15" fill="none" xmlns="http://www.w3.org/2000/svg">
<path d="M122.329 0.0166016L112.98 14.9876H117.137L118.985 11.929H131.255L133.103 14.9876H137.259L127.91 0.0166016H122.329ZM120.761 8.98671L124.385 3.0126H125.863L129.488 8.98671H120.761Z" fill="#00E5FF"/>
<path d="M72.6978 9.03906H69.0195V14.9863H72.6978V9.03906Z" fill="#00E5FF"/>
<path d="M84.0031 9.04443C86.5004 9.04443 88.5288 7.0143 88.5288 4.53702V4.51913C88.5288 2.04184 86.5004 0.0117188 84.0031 0.0117188H69.0195V6.0216H72.6978V3.03454H84.0031C84.8145 3.03454 85.4997 3.69635 85.4997 4.53702C85.4997 5.37768 84.8145 6.0216 84.0031 6.0216H72.6978V9.04443H77.521L84.7965 15.0006H89.764L82.4074 9.04443H84.0121H84.0031Z" fill="#00E5FF"/>
<path d="M44.457 3.02154H53.5265V14.9876H57.2048V3.02154H66.2743V0.0166016H44.457V3.02154Z" fill="#00E5FF"/>
<path d="M3.67828 9.04004H0V14.9873H3.67828V9.04004Z" fill="#00E5FF"/>
<path d="M14.9836 9.04345C17.4809 9.04345 19.5093 7.01333 19.5093 4.53604V4.51815C19.5093 2.04086 17.4809 0.0107422 14.9836 0.0107422H0V6.02062H3.67828V3.03357H14.9836C15.795 3.03357 16.4801 3.69537 16.4801 4.53604C16.4801 5.37671 15.795 6.02062 14.9836 6.02062H3.67828V9.04345H8.50152L15.7769 14.9997H20.7444L13.3879 9.04345H14.9926H14.9836Z" fill="#00E5FF"/>
<path d="M161.776 0.0166016H158.098V3.03943V5.08744V14.9876H176.498V11.9738H161.776V8.99565H176.174V6.02648H161.776V5.08744V3.03943H176.498V0.0166016H161.776Z" fill="#00E5FF"/>
<path d="M182.932 9.03906H179.254V14.9863H182.932V9.03906Z" fill="#00E5FF"/>
<path d="M192.633 9.03271H194.238C196.735 9.03271 198.763 7.00258 198.763 4.5253V4.50741C198.763 2.03012 196.735 0 194.238 0H179.254V6.00988H182.932V3.02283H194.238C195.049 3.02283 195.734 3.68463 195.734 4.5253C195.734 5.36596 195.049 6.00988 194.238 6.00988H182.932V9.03271H187.755L195.031 14.9889H199.998L192.642 9.03271H192.633Z" fill="#00E5FF"/>
<path d="M144.896 11.9827H144.707H144.166H143.977L136.729 0.0166016H132.293L141.651 14.9876H144.166H144.707H147.222L156.58 0.0166016H152.145L144.896 11.9827Z" fill="#00E5FF"/>
<path d="M26.983 0.0166016H23.3047V3.03943V5.08744V14.9876H41.7051V11.9738H26.983V8.99565H41.3896V6.02648H26.983V5.08744V3.03943H41.7051V0.0166016H26.983Z" fill="#00E5FF"/>
<path d="M92.3281 0.0166016V5.08744V14.9876H110.729V11.9738H96.0064V8.99565H110.413V6.02648H96.0064V5.08744V3.03943H110.729V0.0166016H96.0064H92.3281Z" fill="#00E5FF"/>
</svg>
