<?xml version="1.0" encoding="UTF-8"?>
<svg id="Layer_1" xmlns="http://www.w3.org/2000/svg" version="1.1" viewBox="0 0 502.28 627.91">
  <!-- Generator: Adobe Illustrator 30.2.1, SVG Export Plug-In . SVG Version: 2.1.1 Build 1)  -->
  <defs>
    <style>
      .st0 {
        fill-rule: evenodd;
      }
    </style>
  </defs>
  <path class="st0" d="M376.77,461.35c0,22.52-18.42,40.94-40.94,40.94h-170.77c-10.85,0-20.75-4.47-27.91-11.63-7.16-7.16-11.58-17-11.58-27.86V165.06c0-16.28,10.01-30.37,24.16-36.41,2.35-1.01,4.81-1.74,7.38-2.3,2.57-.5,5.2-.78,7.94-.78h3.7c22.61,0,40.93-18.33,40.93-40.93v-43.7c0-22.61-18.32-40.94-40.93-40.94h-5.49c-23.21,0-40.55,18.91-39.43,42.12,1.57,33-8.56,57.5-29.92,70.7-2.85,1.79-5.87,3.36-9.12,4.7-11.72,4.92-26,7.16-42.79,6.35C19,122.76,0,141.76,0,164.79v299.63c0,22.43,18.57,40.94,41,39.66,12.25-.67,23.16.45,32.66,3.24,34.06,10.01,50.68,40.66,50.12,80.88-.28,21.81,17.68,39.71,39.49,39.71h176.47c22.2,0,39.1-18.12,38.76-40.33-.28-20.25,4.19-37.98,13.03-51.85,13.26-20.73,36.24-32.82,67.69-31.46,23.33,1.01,43.06-16.9,43.06-40.26v-108.79c0-22.61-18.33-40.94-40.94-40.94h-43.65c-22.61,0-40.93,18.33-40.93,40.94v106.12ZM439.53,125.57c-24.61,0-40.78-11.52-50.28-28.97-8.17-15.16-11.3-34.73-10.51-55.26.89-22.71-16.67-41.34-39.43-41.34h-54.49c-22.61,0-40.94,18.33-40.94,40.94v43.7c0,22.6,18.33,40.93,40.94,40.93h51.03c22.52,0,40.94,18.42,40.94,40.93v72.68c0,22.61,18.32,40.94,40.93,40.94h43.65c22.61,0,40.94-18.33,40.94-40.94v-50.8c0-34.57-28.25-62.81-62.76-62.81"/>
</svg>