<svg xmlns="http://www.w3.org/2000/svg" viewBox="0 0 594.7 167.0" width="594.7" height="167.0" role="img" aria-label="TDTM — Talk Data To Me"><g transform="translate(16,16)"><g transform="translate(0.0,0) scale(1.3500)"><path d="M40 20 H24 V80 H40" stroke="#0C0C0E" stroke-width="9" stroke-linejoin="bevel" stroke-linecap="butt" fill="none"/><path d="M60 20 H76 V80 H60" stroke="#0C0C0E" stroke-width="9" stroke-linejoin="bevel" stroke-linecap="butt" fill="none"/><path d="M37 33 h26 l-3 8 h-23 z" fill="#C8FF00"/><path d="M37 46 h20 l-3 8 h-17 z" fill="#0C0C0E"/><path d="M37 59 h14 l-3 8 h-11 z" fill="#0C0C0E"/></g><path d="M224 585H15V700H569V585H360V0H224Z" fill="#0C0C0E" transform="translate(181.00,117.50) scale(0.14286,-0.14286)"/><path d="M65 700H513L633 580V120L513 0H65ZM446 116 497 167V533L446 584H201V116Z" fill="#0C0C0E" transform="translate(265.14,117.50) scale(0.14286,-0.14286)"/><path d="M224 585H15V700H569V585H360V0H224Z" fill="#0C0C0E" transform="translate(364.14,117.50) scale(0.14286,-0.14286)"/><path d="M65 700H191L399 248H401L610 700H736V0H605V426H603L442 98H358L198 426H196V0H65Z" fill="#0C0C0E" transform="translate(448.29,117.50) scale(0.14286,-0.14286)"/></g></svg>
